<mxfile host="app.diagrams.net" modified="2024-03-26T00:14:07.314Z" agent="Mozilla/5.0 (Macintosh; Intel Mac OS X 10_15_7) AppleWebKit/537.36 (KHTML, like Gecko) Chrome/120.0.0.0 Safari/537.36" etag="CaR77mcq6OnEcIHUjHt7" version="24.1.0" type="github">
  <diagram id="R2lEEEUBdFMjLlhIrx00" name="Page-1">
    <mxGraphModel dx="1754" dy="1708" grid="1" gridSize="10" guides="1" tooltips="1" connect="1" arrows="1" fold="1" page="1" pageScale="1" pageWidth="850" pageHeight="1100" math="0" shadow="0" extFonts="Permanent Marker^https://fonts.googleapis.com/css?family=Permanent+Marker">
      <root>
        <mxCell id="0" />
        <mxCell id="1" parent="0" />
        <mxCell id="C-vyLk0tnHw3VtMMgP7b-13" value="Movie category" style="shape=table;startSize=30;container=1;collapsible=1;childLayout=tableLayout;fixedRows=1;rowLines=0;fontStyle=1;align=center;resizeLast=1;" parent="1" vertex="1">
          <mxGeometry x="537.5" y="50" width="245" height="115" as="geometry" />
        </mxCell>
        <mxCell id="C-vyLk0tnHw3VtMMgP7b-14" value="" style="shape=partialRectangle;collapsible=0;dropTarget=0;pointerEvents=0;fillColor=none;points=[[0,0.5],[1,0.5]];portConstraint=eastwest;top=0;left=0;right=0;bottom=1;" parent="C-vyLk0tnHw3VtMMgP7b-13" vertex="1">
          <mxGeometry y="30" width="245" height="25" as="geometry" />
        </mxCell>
        <mxCell id="C-vyLk0tnHw3VtMMgP7b-15" value="PK" style="shape=partialRectangle;overflow=hidden;connectable=0;fillColor=none;top=0;left=0;bottom=0;right=0;fontStyle=1;" parent="C-vyLk0tnHw3VtMMgP7b-14" vertex="1">
          <mxGeometry width="30" height="25" as="geometry">
            <mxRectangle width="30" height="25" as="alternateBounds" />
          </mxGeometry>
        </mxCell>
        <mxCell id="C-vyLk0tnHw3VtMMgP7b-16" value="category id" style="shape=partialRectangle;overflow=hidden;connectable=0;fillColor=none;top=0;left=0;bottom=0;right=0;align=left;spacingLeft=6;fontStyle=5;" parent="C-vyLk0tnHw3VtMMgP7b-14" vertex="1">
          <mxGeometry x="30" width="215" height="25" as="geometry">
            <mxRectangle width="215" height="25" as="alternateBounds" />
          </mxGeometry>
        </mxCell>
        <mxCell id="C-vyLk0tnHw3VtMMgP7b-17" value="" style="shape=partialRectangle;collapsible=0;dropTarget=0;pointerEvents=0;fillColor=none;points=[[0,0.5],[1,0.5]];portConstraint=eastwest;top=0;left=0;right=0;bottom=0;" parent="C-vyLk0tnHw3VtMMgP7b-13" vertex="1">
          <mxGeometry y="55" width="245" height="30" as="geometry" />
        </mxCell>
        <mxCell id="C-vyLk0tnHw3VtMMgP7b-18" value="" style="shape=partialRectangle;overflow=hidden;connectable=0;fillColor=none;top=0;left=0;bottom=0;right=0;" parent="C-vyLk0tnHw3VtMMgP7b-17" vertex="1">
          <mxGeometry width="30" height="30" as="geometry">
            <mxRectangle width="30" height="30" as="alternateBounds" />
          </mxGeometry>
        </mxCell>
        <mxCell id="C-vyLk0tnHw3VtMMgP7b-19" value="category name" style="shape=partialRectangle;overflow=hidden;connectable=0;fillColor=none;top=0;left=0;bottom=0;right=0;align=left;spacingLeft=6;" parent="C-vyLk0tnHw3VtMMgP7b-17" vertex="1">
          <mxGeometry x="30" width="215" height="30" as="geometry">
            <mxRectangle width="215" height="30" as="alternateBounds" />
          </mxGeometry>
        </mxCell>
        <mxCell id="C-vyLk0tnHw3VtMMgP7b-20" value="" style="shape=partialRectangle;collapsible=0;dropTarget=0;pointerEvents=0;fillColor=none;points=[[0,0.5],[1,0.5]];portConstraint=eastwest;top=0;left=0;right=0;bottom=0;" parent="C-vyLk0tnHw3VtMMgP7b-13" vertex="1">
          <mxGeometry y="85" width="245" height="30" as="geometry" />
        </mxCell>
        <mxCell id="C-vyLk0tnHw3VtMMgP7b-21" value="" style="shape=partialRectangle;overflow=hidden;connectable=0;fillColor=none;top=0;left=0;bottom=0;right=0;" parent="C-vyLk0tnHw3VtMMgP7b-20" vertex="1">
          <mxGeometry width="30" height="30" as="geometry">
            <mxRectangle width="30" height="30" as="alternateBounds" />
          </mxGeometry>
        </mxCell>
        <mxCell id="C-vyLk0tnHw3VtMMgP7b-22" value="" style="shape=partialRectangle;overflow=hidden;connectable=0;fillColor=none;top=0;left=0;bottom=0;right=0;align=left;spacingLeft=6;" parent="C-vyLk0tnHw3VtMMgP7b-20" vertex="1">
          <mxGeometry x="30" width="215" height="30" as="geometry">
            <mxRectangle width="215" height="30" as="alternateBounds" />
          </mxGeometry>
        </mxCell>
        <mxCell id="SZ6K6iX57uF1bjde4Gt6-57" value="" style="edgeStyle=orthogonalEdgeStyle;rounded=0;orthogonalLoop=1;jettySize=auto;html=1;" edge="1" parent="1" source="SZ6K6iX57uF1bjde4Gt6-19" target="SZ6K6iX57uF1bjde4Gt6-47">
          <mxGeometry relative="1" as="geometry" />
        </mxCell>
        <mxCell id="SZ6K6iX57uF1bjde4Gt6-90" value="" style="edgeStyle=orthogonalEdgeStyle;rounded=0;orthogonalLoop=1;jettySize=auto;html=1;startArrow=ERoneToMany;startFill=0;endArrow=ERzeroToOne;endFill=0;" edge="1" parent="1" source="SZ6K6iX57uF1bjde4Gt6-19" target="SZ6K6iX57uF1bjde4Gt6-80">
          <mxGeometry relative="1" as="geometry" />
        </mxCell>
        <mxCell id="SZ6K6iX57uF1bjde4Gt6-19" value="Purchase order" style="shape=table;startSize=30;container=1;collapsible=1;childLayout=tableLayout;fixedRows=1;rowLines=0;fontStyle=1;align=center;resizeLast=1;" vertex="1" parent="1">
          <mxGeometry x="-30" y="70" width="220" height="140" as="geometry" />
        </mxCell>
        <mxCell id="SZ6K6iX57uF1bjde4Gt6-20" value="" style="shape=partialRectangle;collapsible=0;dropTarget=0;pointerEvents=0;fillColor=none;points=[[0,0.5],[1,0.5]];portConstraint=eastwest;top=0;left=0;right=0;bottom=1;" vertex="1" parent="SZ6K6iX57uF1bjde4Gt6-19">
          <mxGeometry y="30" width="220" height="30" as="geometry" />
        </mxCell>
        <mxCell id="SZ6K6iX57uF1bjde4Gt6-21" value="PK" style="shape=partialRectangle;overflow=hidden;connectable=0;fillColor=none;top=0;left=0;bottom=0;right=0;fontStyle=1;" vertex="1" parent="SZ6K6iX57uF1bjde4Gt6-20">
          <mxGeometry width="30" height="30" as="geometry">
            <mxRectangle width="30" height="30" as="alternateBounds" />
          </mxGeometry>
        </mxCell>
        <mxCell id="SZ6K6iX57uF1bjde4Gt6-22" value="Order id" style="shape=partialRectangle;overflow=hidden;connectable=0;fillColor=none;top=0;left=0;bottom=0;right=0;align=left;spacingLeft=6;fontStyle=5;" vertex="1" parent="SZ6K6iX57uF1bjde4Gt6-20">
          <mxGeometry x="30" width="190" height="30" as="geometry">
            <mxRectangle width="190" height="30" as="alternateBounds" />
          </mxGeometry>
        </mxCell>
        <mxCell id="SZ6K6iX57uF1bjde4Gt6-23" value="" style="shape=partialRectangle;collapsible=0;dropTarget=0;pointerEvents=0;fillColor=none;points=[[0,0.5],[1,0.5]];portConstraint=eastwest;top=0;left=0;right=0;bottom=0;" vertex="1" parent="SZ6K6iX57uF1bjde4Gt6-19">
          <mxGeometry y="60" width="220" height="35" as="geometry" />
        </mxCell>
        <mxCell id="SZ6K6iX57uF1bjde4Gt6-24" value="FK1" style="shape=partialRectangle;overflow=hidden;connectable=0;fillColor=none;top=0;left=0;bottom=0;right=0;" vertex="1" parent="SZ6K6iX57uF1bjde4Gt6-23">
          <mxGeometry width="30" height="35" as="geometry">
            <mxRectangle width="30" height="35" as="alternateBounds" />
          </mxGeometry>
        </mxCell>
        <mxCell id="SZ6K6iX57uF1bjde4Gt6-25" value="Movie id" style="shape=partialRectangle;overflow=hidden;connectable=0;fillColor=none;top=0;left=0;bottom=0;right=0;align=left;spacingLeft=6;" vertex="1" parent="SZ6K6iX57uF1bjde4Gt6-23">
          <mxGeometry x="30" width="190" height="35" as="geometry">
            <mxRectangle width="190" height="35" as="alternateBounds" />
          </mxGeometry>
        </mxCell>
        <mxCell id="SZ6K6iX57uF1bjde4Gt6-26" value="" style="shape=partialRectangle;collapsible=0;dropTarget=0;pointerEvents=0;fillColor=none;points=[[0,0.5],[1,0.5]];portConstraint=eastwest;top=0;left=0;right=0;bottom=0;" vertex="1" parent="SZ6K6iX57uF1bjde4Gt6-19">
          <mxGeometry y="95" width="220" height="25" as="geometry" />
        </mxCell>
        <mxCell id="SZ6K6iX57uF1bjde4Gt6-27" value="FK2" style="shape=partialRectangle;overflow=hidden;connectable=0;fillColor=none;top=0;left=0;bottom=0;right=0;" vertex="1" parent="SZ6K6iX57uF1bjde4Gt6-26">
          <mxGeometry width="30" height="25" as="geometry">
            <mxRectangle width="30" height="25" as="alternateBounds" />
          </mxGeometry>
        </mxCell>
        <mxCell id="SZ6K6iX57uF1bjde4Gt6-28" value="Supplier id" style="shape=partialRectangle;overflow=hidden;connectable=0;fillColor=none;top=0;left=0;bottom=0;right=0;align=left;spacingLeft=6;" vertex="1" parent="SZ6K6iX57uF1bjde4Gt6-26">
          <mxGeometry x="30" width="190" height="25" as="geometry">
            <mxRectangle width="190" height="25" as="alternateBounds" />
          </mxGeometry>
        </mxCell>
        <mxCell id="SZ6K6iX57uF1bjde4Gt6-79" value="" style="edgeStyle=orthogonalEdgeStyle;rounded=0;orthogonalLoop=1;jettySize=auto;html=1;endArrow=ERzeroToMany;endFill=0;startArrow=ERmany;startFill=0;" edge="1" parent="1" source="SZ6K6iX57uF1bjde4Gt6-47" target="SZ6K6iX57uF1bjde4Gt6-69">
          <mxGeometry relative="1" as="geometry" />
        </mxCell>
        <mxCell id="SZ6K6iX57uF1bjde4Gt6-105" value="" style="edgeStyle=orthogonalEdgeStyle;rounded=0;orthogonalLoop=1;jettySize=auto;html=1;startArrow=ERone;startFill=0;endArrow=ERoneToMany;endFill=0;" edge="1" parent="1" source="SZ6K6iX57uF1bjde4Gt6-47" target="SZ6K6iX57uF1bjde4Gt6-95">
          <mxGeometry relative="1" as="geometry" />
        </mxCell>
        <mxCell id="SZ6K6iX57uF1bjde4Gt6-47" value="Movie information" style="shape=table;startSize=30;container=1;collapsible=1;childLayout=tableLayout;fixedRows=1;rowLines=0;fontStyle=1;align=center;resizeLast=1;" vertex="1" parent="1">
          <mxGeometry x="250" y="65" width="220" height="170" as="geometry" />
        </mxCell>
        <mxCell id="SZ6K6iX57uF1bjde4Gt6-48" value="" style="shape=partialRectangle;collapsible=0;dropTarget=0;pointerEvents=0;fillColor=none;points=[[0,0.5],[1,0.5]];portConstraint=eastwest;top=0;left=0;right=0;bottom=1;" vertex="1" parent="SZ6K6iX57uF1bjde4Gt6-47">
          <mxGeometry y="30" width="220" height="30" as="geometry" />
        </mxCell>
        <mxCell id="SZ6K6iX57uF1bjde4Gt6-49" value="PK" style="shape=partialRectangle;overflow=hidden;connectable=0;fillColor=none;top=0;left=0;bottom=0;right=0;fontStyle=1;" vertex="1" parent="SZ6K6iX57uF1bjde4Gt6-48">
          <mxGeometry width="30" height="30" as="geometry">
            <mxRectangle width="30" height="30" as="alternateBounds" />
          </mxGeometry>
        </mxCell>
        <mxCell id="SZ6K6iX57uF1bjde4Gt6-50" value="Movie id" style="shape=partialRectangle;overflow=hidden;connectable=0;fillColor=none;top=0;left=0;bottom=0;right=0;align=left;spacingLeft=6;fontStyle=5;" vertex="1" parent="SZ6K6iX57uF1bjde4Gt6-48">
          <mxGeometry x="30" width="190" height="30" as="geometry">
            <mxRectangle width="190" height="30" as="alternateBounds" />
          </mxGeometry>
        </mxCell>
        <mxCell id="SZ6K6iX57uF1bjde4Gt6-51" value="" style="shape=partialRectangle;collapsible=0;dropTarget=0;pointerEvents=0;fillColor=none;points=[[0,0.5],[1,0.5]];portConstraint=eastwest;top=0;left=0;right=0;bottom=0;" vertex="1" parent="SZ6K6iX57uF1bjde4Gt6-47">
          <mxGeometry y="60" width="220" height="35" as="geometry" />
        </mxCell>
        <mxCell id="SZ6K6iX57uF1bjde4Gt6-52" value="FK1" style="shape=partialRectangle;overflow=hidden;connectable=0;fillColor=none;top=0;left=0;bottom=0;right=0;" vertex="1" parent="SZ6K6iX57uF1bjde4Gt6-51">
          <mxGeometry width="30" height="35" as="geometry">
            <mxRectangle width="30" height="35" as="alternateBounds" />
          </mxGeometry>
        </mxCell>
        <mxCell id="SZ6K6iX57uF1bjde4Gt6-53" value="main actor id" style="shape=partialRectangle;overflow=hidden;connectable=0;fillColor=none;top=0;left=0;bottom=0;right=0;align=left;spacingLeft=6;" vertex="1" parent="SZ6K6iX57uF1bjde4Gt6-51">
          <mxGeometry x="30" width="190" height="35" as="geometry">
            <mxRectangle width="190" height="35" as="alternateBounds" />
          </mxGeometry>
        </mxCell>
        <mxCell id="SZ6K6iX57uF1bjde4Gt6-54" value="" style="shape=partialRectangle;collapsible=0;dropTarget=0;pointerEvents=0;fillColor=none;points=[[0,0.5],[1,0.5]];portConstraint=eastwest;top=0;left=0;right=0;bottom=0;" vertex="1" parent="SZ6K6iX57uF1bjde4Gt6-47">
          <mxGeometry y="95" width="220" height="30" as="geometry" />
        </mxCell>
        <mxCell id="SZ6K6iX57uF1bjde4Gt6-55" value="FK2" style="shape=partialRectangle;overflow=hidden;connectable=0;fillColor=none;top=0;left=0;bottom=0;right=0;" vertex="1" parent="SZ6K6iX57uF1bjde4Gt6-54">
          <mxGeometry width="30" height="30" as="geometry">
            <mxRectangle width="30" height="30" as="alternateBounds" />
          </mxGeometry>
        </mxCell>
        <mxCell id="SZ6K6iX57uF1bjde4Gt6-56" value="category id" style="shape=partialRectangle;overflow=hidden;connectable=0;fillColor=none;top=0;left=0;bottom=0;right=0;align=left;spacingLeft=6;" vertex="1" parent="SZ6K6iX57uF1bjde4Gt6-54">
          <mxGeometry x="30" width="190" height="30" as="geometry">
            <mxRectangle width="190" height="30" as="alternateBounds" />
          </mxGeometry>
        </mxCell>
        <mxCell id="SZ6K6iX57uF1bjde4Gt6-69" value="actor list" style="shape=table;startSize=30;container=1;collapsible=1;childLayout=tableLayout;fixedRows=1;rowLines=0;fontStyle=1;align=center;resizeLast=1;" vertex="1" parent="1">
          <mxGeometry x="250" y="300" width="220" height="140" as="geometry" />
        </mxCell>
        <mxCell id="SZ6K6iX57uF1bjde4Gt6-70" value="" style="shape=partialRectangle;collapsible=0;dropTarget=0;pointerEvents=0;fillColor=none;points=[[0,0.5],[1,0.5]];portConstraint=eastwest;top=0;left=0;right=0;bottom=1;" vertex="1" parent="SZ6K6iX57uF1bjde4Gt6-69">
          <mxGeometry y="30" width="220" height="30" as="geometry" />
        </mxCell>
        <mxCell id="SZ6K6iX57uF1bjde4Gt6-71" value="PK" style="shape=partialRectangle;overflow=hidden;connectable=0;fillColor=none;top=0;left=0;bottom=0;right=0;fontStyle=1;" vertex="1" parent="SZ6K6iX57uF1bjde4Gt6-70">
          <mxGeometry width="30" height="30" as="geometry">
            <mxRectangle width="30" height="30" as="alternateBounds" />
          </mxGeometry>
        </mxCell>
        <mxCell id="SZ6K6iX57uF1bjde4Gt6-72" value="Actor id" style="shape=partialRectangle;overflow=hidden;connectable=0;fillColor=none;top=0;left=0;bottom=0;right=0;align=left;spacingLeft=6;fontStyle=5;" vertex="1" parent="SZ6K6iX57uF1bjde4Gt6-70">
          <mxGeometry x="30" width="190" height="30" as="geometry">
            <mxRectangle width="190" height="30" as="alternateBounds" />
          </mxGeometry>
        </mxCell>
        <mxCell id="SZ6K6iX57uF1bjde4Gt6-73" value="" style="shape=partialRectangle;collapsible=0;dropTarget=0;pointerEvents=0;fillColor=none;points=[[0,0.5],[1,0.5]];portConstraint=eastwest;top=0;left=0;right=0;bottom=0;" vertex="1" parent="SZ6K6iX57uF1bjde4Gt6-69">
          <mxGeometry y="60" width="220" height="35" as="geometry" />
        </mxCell>
        <mxCell id="SZ6K6iX57uF1bjde4Gt6-74" value="FK1" style="shape=partialRectangle;overflow=hidden;connectable=0;fillColor=none;top=0;left=0;bottom=0;right=0;" vertex="1" parent="SZ6K6iX57uF1bjde4Gt6-73">
          <mxGeometry width="30" height="35" as="geometry">
            <mxRectangle width="30" height="35" as="alternateBounds" />
          </mxGeometry>
        </mxCell>
        <mxCell id="SZ6K6iX57uF1bjde4Gt6-75" value="main actor id" style="shape=partialRectangle;overflow=hidden;connectable=0;fillColor=none;top=0;left=0;bottom=0;right=0;align=left;spacingLeft=6;" vertex="1" parent="SZ6K6iX57uF1bjde4Gt6-73">
          <mxGeometry x="30" width="190" height="35" as="geometry">
            <mxRectangle width="190" height="35" as="alternateBounds" />
          </mxGeometry>
        </mxCell>
        <mxCell id="SZ6K6iX57uF1bjde4Gt6-76" value="" style="shape=partialRectangle;collapsible=0;dropTarget=0;pointerEvents=0;fillColor=none;points=[[0,0.5],[1,0.5]];portConstraint=eastwest;top=0;left=0;right=0;bottom=0;" vertex="1" parent="SZ6K6iX57uF1bjde4Gt6-69">
          <mxGeometry y="95" width="220" height="25" as="geometry" />
        </mxCell>
        <mxCell id="SZ6K6iX57uF1bjde4Gt6-77" value="" style="shape=partialRectangle;overflow=hidden;connectable=0;fillColor=none;top=0;left=0;bottom=0;right=0;" vertex="1" parent="SZ6K6iX57uF1bjde4Gt6-76">
          <mxGeometry width="30" height="25" as="geometry">
            <mxRectangle width="30" height="25" as="alternateBounds" />
          </mxGeometry>
        </mxCell>
        <mxCell id="SZ6K6iX57uF1bjde4Gt6-78" value="Actor name name" style="shape=partialRectangle;overflow=hidden;connectable=0;fillColor=none;top=0;left=0;bottom=0;right=0;align=left;spacingLeft=6;" vertex="1" parent="SZ6K6iX57uF1bjde4Gt6-76">
          <mxGeometry x="30" width="190" height="25" as="geometry">
            <mxRectangle width="190" height="25" as="alternateBounds" />
          </mxGeometry>
        </mxCell>
        <mxCell id="SZ6K6iX57uF1bjde4Gt6-80" value="Movie supplier" style="shape=table;startSize=30;container=1;collapsible=1;childLayout=tableLayout;fixedRows=1;rowLines=0;fontStyle=1;align=center;resizeLast=1;" vertex="1" parent="1">
          <mxGeometry x="-20" y="300" width="220" height="140" as="geometry" />
        </mxCell>
        <mxCell id="SZ6K6iX57uF1bjde4Gt6-81" value="" style="shape=partialRectangle;collapsible=0;dropTarget=0;pointerEvents=0;fillColor=none;points=[[0,0.5],[1,0.5]];portConstraint=eastwest;top=0;left=0;right=0;bottom=1;" vertex="1" parent="SZ6K6iX57uF1bjde4Gt6-80">
          <mxGeometry y="30" width="220" height="30" as="geometry" />
        </mxCell>
        <mxCell id="SZ6K6iX57uF1bjde4Gt6-82" value="PK" style="shape=partialRectangle;overflow=hidden;connectable=0;fillColor=none;top=0;left=0;bottom=0;right=0;fontStyle=1;" vertex="1" parent="SZ6K6iX57uF1bjde4Gt6-81">
          <mxGeometry width="30" height="30" as="geometry">
            <mxRectangle width="30" height="30" as="alternateBounds" />
          </mxGeometry>
        </mxCell>
        <mxCell id="SZ6K6iX57uF1bjde4Gt6-83" value="supplier id" style="shape=partialRectangle;overflow=hidden;connectable=0;fillColor=none;top=0;left=0;bottom=0;right=0;align=left;spacingLeft=6;fontStyle=5;" vertex="1" parent="SZ6K6iX57uF1bjde4Gt6-81">
          <mxGeometry x="30" width="190" height="30" as="geometry">
            <mxRectangle width="190" height="30" as="alternateBounds" />
          </mxGeometry>
        </mxCell>
        <mxCell id="SZ6K6iX57uF1bjde4Gt6-84" value="" style="shape=partialRectangle;collapsible=0;dropTarget=0;pointerEvents=0;fillColor=none;points=[[0,0.5],[1,0.5]];portConstraint=eastwest;top=0;left=0;right=0;bottom=0;" vertex="1" parent="SZ6K6iX57uF1bjde4Gt6-80">
          <mxGeometry y="60" width="220" height="35" as="geometry" />
        </mxCell>
        <mxCell id="SZ6K6iX57uF1bjde4Gt6-85" value="" style="shape=partialRectangle;overflow=hidden;connectable=0;fillColor=none;top=0;left=0;bottom=0;right=0;" vertex="1" parent="SZ6K6iX57uF1bjde4Gt6-84">
          <mxGeometry width="30" height="35" as="geometry">
            <mxRectangle width="30" height="35" as="alternateBounds" />
          </mxGeometry>
        </mxCell>
        <mxCell id="SZ6K6iX57uF1bjde4Gt6-86" value="Supplier name" style="shape=partialRectangle;overflow=hidden;connectable=0;fillColor=none;top=0;left=0;bottom=0;right=0;align=left;spacingLeft=6;" vertex="1" parent="SZ6K6iX57uF1bjde4Gt6-84">
          <mxGeometry x="30" width="190" height="35" as="geometry">
            <mxRectangle width="190" height="35" as="alternateBounds" />
          </mxGeometry>
        </mxCell>
        <mxCell id="SZ6K6iX57uF1bjde4Gt6-87" value="" style="shape=partialRectangle;collapsible=0;dropTarget=0;pointerEvents=0;fillColor=none;points=[[0,0.5],[1,0.5]];portConstraint=eastwest;top=0;left=0;right=0;bottom=0;" vertex="1" parent="SZ6K6iX57uF1bjde4Gt6-80">
          <mxGeometry y="95" width="220" height="25" as="geometry" />
        </mxCell>
        <mxCell id="SZ6K6iX57uF1bjde4Gt6-88" value="" style="shape=partialRectangle;overflow=hidden;connectable=0;fillColor=none;top=0;left=0;bottom=0;right=0;" vertex="1" parent="SZ6K6iX57uF1bjde4Gt6-87">
          <mxGeometry width="30" height="25" as="geometry">
            <mxRectangle width="30" height="25" as="alternateBounds" />
          </mxGeometry>
        </mxCell>
        <mxCell id="SZ6K6iX57uF1bjde4Gt6-89" value="" style="shape=partialRectangle;overflow=hidden;connectable=0;fillColor=none;top=0;left=0;bottom=0;right=0;align=left;spacingLeft=6;" vertex="1" parent="SZ6K6iX57uF1bjde4Gt6-87">
          <mxGeometry x="30" width="190" height="25" as="geometry">
            <mxRectangle width="190" height="25" as="alternateBounds" />
          </mxGeometry>
        </mxCell>
        <mxCell id="SZ6K6iX57uF1bjde4Gt6-92" value="Movie name" style="text;html=1;align=center;verticalAlign=middle;resizable=0;points=[];autosize=1;strokeColor=none;fillColor=none;" vertex="1" parent="1">
          <mxGeometry x="280" y="198" width="90" height="30" as="geometry" />
        </mxCell>
        <mxCell id="SZ6K6iX57uF1bjde4Gt6-93" value="" style="edgeStyle=orthogonalEdgeStyle;rounded=0;orthogonalLoop=1;jettySize=auto;html=1;endArrow=ERoneToMany;endFill=0;" edge="1" parent="1" source="SZ6K6iX57uF1bjde4Gt6-54" target="C-vyLk0tnHw3VtMMgP7b-20">
          <mxGeometry relative="1" as="geometry" />
        </mxCell>
        <mxCell id="SZ6K6iX57uF1bjde4Gt6-116" value="" style="edgeStyle=orthogonalEdgeStyle;rounded=0;orthogonalLoop=1;jettySize=auto;html=1;" edge="1" parent="1" source="SZ6K6iX57uF1bjde4Gt6-95" target="SZ6K6iX57uF1bjde4Gt6-106">
          <mxGeometry relative="1" as="geometry" />
        </mxCell>
        <mxCell id="SZ6K6iX57uF1bjde4Gt6-131" value="" style="edgeStyle=orthogonalEdgeStyle;rounded=0;orthogonalLoop=1;jettySize=auto;html=1;endArrow=ERoneToMany;endFill=0;" edge="1" parent="1" source="SZ6K6iX57uF1bjde4Gt6-95" target="SZ6K6iX57uF1bjde4Gt6-121">
          <mxGeometry relative="1" as="geometry" />
        </mxCell>
        <mxCell id="SZ6K6iX57uF1bjde4Gt6-95" value="Loan transaction" style="shape=table;startSize=30;container=1;collapsible=1;childLayout=tableLayout;fixedRows=1;rowLines=0;fontStyle=1;align=center;resizeLast=1;" vertex="1" parent="1">
          <mxGeometry x="250" y="-202" width="220" height="222" as="geometry" />
        </mxCell>
        <mxCell id="SZ6K6iX57uF1bjde4Gt6-96" value="" style="shape=partialRectangle;collapsible=0;dropTarget=0;pointerEvents=0;fillColor=none;points=[[0,0.5],[1,0.5]];portConstraint=eastwest;top=0;left=0;right=0;bottom=1;" vertex="1" parent="SZ6K6iX57uF1bjde4Gt6-95">
          <mxGeometry y="30" width="220" height="30" as="geometry" />
        </mxCell>
        <mxCell id="SZ6K6iX57uF1bjde4Gt6-97" value="PK" style="shape=partialRectangle;overflow=hidden;connectable=0;fillColor=none;top=0;left=0;bottom=0;right=0;fontStyle=1;" vertex="1" parent="SZ6K6iX57uF1bjde4Gt6-96">
          <mxGeometry width="30" height="30" as="geometry">
            <mxRectangle width="30" height="30" as="alternateBounds" />
          </mxGeometry>
        </mxCell>
        <mxCell id="SZ6K6iX57uF1bjde4Gt6-98" value="Transaction id" style="shape=partialRectangle;overflow=hidden;connectable=0;fillColor=none;top=0;left=0;bottom=0;right=0;align=left;spacingLeft=6;fontStyle=5;" vertex="1" parent="SZ6K6iX57uF1bjde4Gt6-96">
          <mxGeometry x="30" width="190" height="30" as="geometry">
            <mxRectangle width="190" height="30" as="alternateBounds" />
          </mxGeometry>
        </mxCell>
        <mxCell id="SZ6K6iX57uF1bjde4Gt6-99" value="" style="shape=partialRectangle;collapsible=0;dropTarget=0;pointerEvents=0;fillColor=none;points=[[0,0.5],[1,0.5]];portConstraint=eastwest;top=0;left=0;right=0;bottom=0;" vertex="1" parent="SZ6K6iX57uF1bjde4Gt6-95">
          <mxGeometry y="60" width="220" height="35" as="geometry" />
        </mxCell>
        <mxCell id="SZ6K6iX57uF1bjde4Gt6-100" value="FK1" style="shape=partialRectangle;overflow=hidden;connectable=0;fillColor=none;top=0;left=0;bottom=0;right=0;" vertex="1" parent="SZ6K6iX57uF1bjde4Gt6-99">
          <mxGeometry width="30" height="35" as="geometry">
            <mxRectangle width="30" height="35" as="alternateBounds" />
          </mxGeometry>
        </mxCell>
        <mxCell id="SZ6K6iX57uF1bjde4Gt6-101" value="Store id" style="shape=partialRectangle;overflow=hidden;connectable=0;fillColor=none;top=0;left=0;bottom=0;right=0;align=left;spacingLeft=6;" vertex="1" parent="SZ6K6iX57uF1bjde4Gt6-99">
          <mxGeometry x="30" width="190" height="35" as="geometry">
            <mxRectangle width="190" height="35" as="alternateBounds" />
          </mxGeometry>
        </mxCell>
        <mxCell id="SZ6K6iX57uF1bjde4Gt6-102" value="" style="shape=partialRectangle;collapsible=0;dropTarget=0;pointerEvents=0;fillColor=none;points=[[0,0.5],[1,0.5]];portConstraint=eastwest;top=0;left=0;right=0;bottom=0;" vertex="1" parent="SZ6K6iX57uF1bjde4Gt6-95">
          <mxGeometry y="95" width="220" height="30" as="geometry" />
        </mxCell>
        <mxCell id="SZ6K6iX57uF1bjde4Gt6-103" value="FK2" style="shape=partialRectangle;overflow=hidden;connectable=0;fillColor=none;top=0;left=0;bottom=0;right=0;" vertex="1" parent="SZ6K6iX57uF1bjde4Gt6-102">
          <mxGeometry width="30" height="30" as="geometry">
            <mxRectangle width="30" height="30" as="alternateBounds" />
          </mxGeometry>
        </mxCell>
        <mxCell id="SZ6K6iX57uF1bjde4Gt6-104" value="category id" style="shape=partialRectangle;overflow=hidden;connectable=0;fillColor=none;top=0;left=0;bottom=0;right=0;align=left;spacingLeft=6;" vertex="1" parent="SZ6K6iX57uF1bjde4Gt6-102">
          <mxGeometry x="30" width="190" height="30" as="geometry">
            <mxRectangle width="190" height="30" as="alternateBounds" />
          </mxGeometry>
        </mxCell>
        <mxCell id="SZ6K6iX57uF1bjde4Gt6-106" value="Store" style="shape=table;startSize=30;container=1;collapsible=1;childLayout=tableLayout;fixedRows=1;rowLines=0;fontStyle=1;align=center;resizeLast=1;" vertex="1" parent="1">
          <mxGeometry x="550" y="-200" width="220" height="130" as="geometry" />
        </mxCell>
        <mxCell id="SZ6K6iX57uF1bjde4Gt6-107" value="" style="shape=partialRectangle;collapsible=0;dropTarget=0;pointerEvents=0;fillColor=none;points=[[0,0.5],[1,0.5]];portConstraint=eastwest;top=0;left=0;right=0;bottom=1;" vertex="1" parent="SZ6K6iX57uF1bjde4Gt6-106">
          <mxGeometry y="30" width="220" height="30" as="geometry" />
        </mxCell>
        <mxCell id="SZ6K6iX57uF1bjde4Gt6-108" value="PK" style="shape=partialRectangle;overflow=hidden;connectable=0;fillColor=none;top=0;left=0;bottom=0;right=0;fontStyle=1;" vertex="1" parent="SZ6K6iX57uF1bjde4Gt6-107">
          <mxGeometry width="30" height="30" as="geometry">
            <mxRectangle width="30" height="30" as="alternateBounds" />
          </mxGeometry>
        </mxCell>
        <mxCell id="SZ6K6iX57uF1bjde4Gt6-109" value="Store id" style="shape=partialRectangle;overflow=hidden;connectable=0;fillColor=none;top=0;left=0;bottom=0;right=0;align=left;spacingLeft=6;fontStyle=5;" vertex="1" parent="SZ6K6iX57uF1bjde4Gt6-107">
          <mxGeometry x="30" width="190" height="30" as="geometry">
            <mxRectangle width="190" height="30" as="alternateBounds" />
          </mxGeometry>
        </mxCell>
        <mxCell id="SZ6K6iX57uF1bjde4Gt6-110" value="" style="shape=partialRectangle;collapsible=0;dropTarget=0;pointerEvents=0;fillColor=none;points=[[0,0.5],[1,0.5]];portConstraint=eastwest;top=0;left=0;right=0;bottom=0;" vertex="1" parent="SZ6K6iX57uF1bjde4Gt6-106">
          <mxGeometry y="60" width="220" height="35" as="geometry" />
        </mxCell>
        <mxCell id="SZ6K6iX57uF1bjde4Gt6-111" value="FK1" style="shape=partialRectangle;overflow=hidden;connectable=0;fillColor=none;top=0;left=0;bottom=0;right=0;" vertex="1" parent="SZ6K6iX57uF1bjde4Gt6-110">
          <mxGeometry width="30" height="35" as="geometry">
            <mxRectangle width="30" height="35" as="alternateBounds" />
          </mxGeometry>
        </mxCell>
        <mxCell id="SZ6K6iX57uF1bjde4Gt6-112" value="" style="shape=partialRectangle;overflow=hidden;connectable=0;fillColor=none;top=0;left=0;bottom=0;right=0;align=left;spacingLeft=6;" vertex="1" parent="SZ6K6iX57uF1bjde4Gt6-110">
          <mxGeometry x="30" width="190" height="35" as="geometry">
            <mxRectangle width="190" height="35" as="alternateBounds" />
          </mxGeometry>
        </mxCell>
        <mxCell id="SZ6K6iX57uF1bjde4Gt6-113" value="" style="shape=partialRectangle;collapsible=0;dropTarget=0;pointerEvents=0;fillColor=none;points=[[0,0.5],[1,0.5]];portConstraint=eastwest;top=0;left=0;right=0;bottom=0;" vertex="1" parent="SZ6K6iX57uF1bjde4Gt6-106">
          <mxGeometry y="95" width="220" height="30" as="geometry" />
        </mxCell>
        <mxCell id="SZ6K6iX57uF1bjde4Gt6-114" value="" style="shape=partialRectangle;overflow=hidden;connectable=0;fillColor=none;top=0;left=0;bottom=0;right=0;" vertex="1" parent="SZ6K6iX57uF1bjde4Gt6-113">
          <mxGeometry width="30" height="30" as="geometry">
            <mxRectangle width="30" height="30" as="alternateBounds" />
          </mxGeometry>
        </mxCell>
        <mxCell id="SZ6K6iX57uF1bjde4Gt6-115" value="Store address" style="shape=partialRectangle;overflow=hidden;connectable=0;fillColor=none;top=0;left=0;bottom=0;right=0;align=left;spacingLeft=6;" vertex="1" parent="SZ6K6iX57uF1bjde4Gt6-113">
          <mxGeometry x="30" width="190" height="30" as="geometry">
            <mxRectangle width="190" height="30" as="alternateBounds" />
          </mxGeometry>
        </mxCell>
        <mxCell id="SZ6K6iX57uF1bjde4Gt6-117" value="member id" style="text;html=1;align=center;verticalAlign=middle;resizable=0;points=[];autosize=1;strokeColor=none;fillColor=none;" vertex="1" parent="1">
          <mxGeometry x="275" y="-70" width="80" height="30" as="geometry" />
        </mxCell>
        <mxCell id="SZ6K6iX57uF1bjde4Gt6-145" value="" style="edgeStyle=orthogonalEdgeStyle;rounded=0;orthogonalLoop=1;jettySize=auto;html=1;" edge="1" parent="1" source="SZ6K6iX57uF1bjde4Gt6-121" target="SZ6K6iX57uF1bjde4Gt6-135">
          <mxGeometry relative="1" as="geometry" />
        </mxCell>
        <mxCell id="SZ6K6iX57uF1bjde4Gt6-121" value="Member" style="shape=table;startSize=30;container=1;collapsible=1;childLayout=tableLayout;fixedRows=1;rowLines=0;fontStyle=1;align=center;resizeLast=1;" vertex="1" parent="1">
          <mxGeometry x="-50" y="-185" width="220" height="170" as="geometry" />
        </mxCell>
        <mxCell id="SZ6K6iX57uF1bjde4Gt6-122" value="" style="shape=partialRectangle;collapsible=0;dropTarget=0;pointerEvents=0;fillColor=none;points=[[0,0.5],[1,0.5]];portConstraint=eastwest;top=0;left=0;right=0;bottom=1;" vertex="1" parent="SZ6K6iX57uF1bjde4Gt6-121">
          <mxGeometry y="30" width="220" height="30" as="geometry" />
        </mxCell>
        <mxCell id="SZ6K6iX57uF1bjde4Gt6-123" value="PK" style="shape=partialRectangle;overflow=hidden;connectable=0;fillColor=none;top=0;left=0;bottom=0;right=0;fontStyle=1;" vertex="1" parent="SZ6K6iX57uF1bjde4Gt6-122">
          <mxGeometry width="30" height="30" as="geometry">
            <mxRectangle width="30" height="30" as="alternateBounds" />
          </mxGeometry>
        </mxCell>
        <mxCell id="SZ6K6iX57uF1bjde4Gt6-124" value="Member id" style="shape=partialRectangle;overflow=hidden;connectable=0;fillColor=none;top=0;left=0;bottom=0;right=0;align=left;spacingLeft=6;fontStyle=5;" vertex="1" parent="SZ6K6iX57uF1bjde4Gt6-122">
          <mxGeometry x="30" width="190" height="30" as="geometry">
            <mxRectangle width="190" height="30" as="alternateBounds" />
          </mxGeometry>
        </mxCell>
        <mxCell id="SZ6K6iX57uF1bjde4Gt6-125" value="" style="shape=partialRectangle;collapsible=0;dropTarget=0;pointerEvents=0;fillColor=none;points=[[0,0.5],[1,0.5]];portConstraint=eastwest;top=0;left=0;right=0;bottom=0;" vertex="1" parent="SZ6K6iX57uF1bjde4Gt6-121">
          <mxGeometry y="60" width="220" height="35" as="geometry" />
        </mxCell>
        <mxCell id="SZ6K6iX57uF1bjde4Gt6-126" value="FK1" style="shape=partialRectangle;overflow=hidden;connectable=0;fillColor=none;top=0;left=0;bottom=0;right=0;" vertex="1" parent="SZ6K6iX57uF1bjde4Gt6-125">
          <mxGeometry width="30" height="35" as="geometry">
            <mxRectangle width="30" height="35" as="alternateBounds" />
          </mxGeometry>
        </mxCell>
        <mxCell id="SZ6K6iX57uF1bjde4Gt6-127" value="member type" style="shape=partialRectangle;overflow=hidden;connectable=0;fillColor=none;top=0;left=0;bottom=0;right=0;align=left;spacingLeft=6;" vertex="1" parent="SZ6K6iX57uF1bjde4Gt6-125">
          <mxGeometry x="30" width="190" height="35" as="geometry">
            <mxRectangle width="190" height="35" as="alternateBounds" />
          </mxGeometry>
        </mxCell>
        <mxCell id="SZ6K6iX57uF1bjde4Gt6-128" value="" style="shape=partialRectangle;collapsible=0;dropTarget=0;pointerEvents=0;fillColor=none;points=[[0,0.5],[1,0.5]];portConstraint=eastwest;top=0;left=0;right=0;bottom=0;" vertex="1" parent="SZ6K6iX57uF1bjde4Gt6-121">
          <mxGeometry y="95" width="220" height="30" as="geometry" />
        </mxCell>
        <mxCell id="SZ6K6iX57uF1bjde4Gt6-129" value="" style="shape=partialRectangle;overflow=hidden;connectable=0;fillColor=none;top=0;left=0;bottom=0;right=0;" vertex="1" parent="SZ6K6iX57uF1bjde4Gt6-128">
          <mxGeometry width="30" height="30" as="geometry">
            <mxRectangle width="30" height="30" as="alternateBounds" />
          </mxGeometry>
        </mxCell>
        <mxCell id="SZ6K6iX57uF1bjde4Gt6-130" value="" style="shape=partialRectangle;overflow=hidden;connectable=0;fillColor=none;top=0;left=0;bottom=0;right=0;align=left;spacingLeft=6;" vertex="1" parent="SZ6K6iX57uF1bjde4Gt6-128">
          <mxGeometry x="30" width="190" height="30" as="geometry">
            <mxRectangle width="190" height="30" as="alternateBounds" />
          </mxGeometry>
        </mxCell>
        <mxCell id="SZ6K6iX57uF1bjde4Gt6-132" value="FK3" style="shape=partialRectangle;overflow=hidden;connectable=0;fillColor=none;top=0;left=0;bottom=0;right=0;" vertex="1" parent="1">
          <mxGeometry x="250" y="-70" width="30" height="30" as="geometry">
            <mxRectangle width="30" height="30" as="alternateBounds" />
          </mxGeometry>
        </mxCell>
        <mxCell id="SZ6K6iX57uF1bjde4Gt6-134" value="member user name" style="text;html=1;align=center;verticalAlign=middle;resizable=0;points=[];autosize=1;strokeColor=none;fillColor=none;" vertex="1" parent="1">
          <mxGeometry x="-30" y="-90" width="130" height="30" as="geometry" />
        </mxCell>
        <mxCell id="SZ6K6iX57uF1bjde4Gt6-135" value="Membership" style="shape=table;startSize=30;container=1;collapsible=1;childLayout=tableLayout;fixedRows=1;rowLines=0;fontStyle=1;align=center;resizeLast=1;" vertex="1" parent="1">
          <mxGeometry x="100" y="-410" width="220" height="170" as="geometry" />
        </mxCell>
        <mxCell id="SZ6K6iX57uF1bjde4Gt6-136" value="" style="shape=partialRectangle;collapsible=0;dropTarget=0;pointerEvents=0;fillColor=none;points=[[0,0.5],[1,0.5]];portConstraint=eastwest;top=0;left=0;right=0;bottom=1;" vertex="1" parent="SZ6K6iX57uF1bjde4Gt6-135">
          <mxGeometry y="30" width="220" height="30" as="geometry" />
        </mxCell>
        <mxCell id="SZ6K6iX57uF1bjde4Gt6-137" value="PK" style="shape=partialRectangle;overflow=hidden;connectable=0;fillColor=none;top=0;left=0;bottom=0;right=0;fontStyle=1;" vertex="1" parent="SZ6K6iX57uF1bjde4Gt6-136">
          <mxGeometry width="30" height="30" as="geometry">
            <mxRectangle width="30" height="30" as="alternateBounds" />
          </mxGeometry>
        </mxCell>
        <mxCell id="SZ6K6iX57uF1bjde4Gt6-138" value="member type" style="shape=partialRectangle;overflow=hidden;connectable=0;fillColor=none;top=0;left=0;bottom=0;right=0;align=left;spacingLeft=6;fontStyle=5;" vertex="1" parent="SZ6K6iX57uF1bjde4Gt6-136">
          <mxGeometry x="30" width="190" height="30" as="geometry">
            <mxRectangle width="190" height="30" as="alternateBounds" />
          </mxGeometry>
        </mxCell>
        <mxCell id="SZ6K6iX57uF1bjde4Gt6-139" value="" style="shape=partialRectangle;collapsible=0;dropTarget=0;pointerEvents=0;fillColor=none;points=[[0,0.5],[1,0.5]];portConstraint=eastwest;top=0;left=0;right=0;bottom=0;" vertex="1" parent="SZ6K6iX57uF1bjde4Gt6-135">
          <mxGeometry y="60" width="220" height="35" as="geometry" />
        </mxCell>
        <mxCell id="SZ6K6iX57uF1bjde4Gt6-140" value="FK1" style="shape=partialRectangle;overflow=hidden;connectable=0;fillColor=none;top=0;left=0;bottom=0;right=0;" vertex="1" parent="SZ6K6iX57uF1bjde4Gt6-139">
          <mxGeometry width="30" height="35" as="geometry">
            <mxRectangle width="30" height="35" as="alternateBounds" />
          </mxGeometry>
        </mxCell>
        <mxCell id="SZ6K6iX57uF1bjde4Gt6-141" value="" style="shape=partialRectangle;overflow=hidden;connectable=0;fillColor=none;top=0;left=0;bottom=0;right=0;align=left;spacingLeft=6;" vertex="1" parent="SZ6K6iX57uF1bjde4Gt6-139">
          <mxGeometry x="30" width="190" height="35" as="geometry">
            <mxRectangle width="190" height="35" as="alternateBounds" />
          </mxGeometry>
        </mxCell>
        <mxCell id="SZ6K6iX57uF1bjde4Gt6-142" value="" style="shape=partialRectangle;collapsible=0;dropTarget=0;pointerEvents=0;fillColor=none;points=[[0,0.5],[1,0.5]];portConstraint=eastwest;top=0;left=0;right=0;bottom=0;" vertex="1" parent="SZ6K6iX57uF1bjde4Gt6-135">
          <mxGeometry y="95" width="220" height="30" as="geometry" />
        </mxCell>
        <mxCell id="SZ6K6iX57uF1bjde4Gt6-143" value="FK2" style="shape=partialRectangle;overflow=hidden;connectable=0;fillColor=none;top=0;left=0;bottom=0;right=0;" vertex="1" parent="SZ6K6iX57uF1bjde4Gt6-142">
          <mxGeometry width="30" height="30" as="geometry">
            <mxRectangle width="30" height="30" as="alternateBounds" />
          </mxGeometry>
        </mxCell>
        <mxCell id="SZ6K6iX57uF1bjde4Gt6-144" value="" style="shape=partialRectangle;overflow=hidden;connectable=0;fillColor=none;top=0;left=0;bottom=0;right=0;align=left;spacingLeft=6;" vertex="1" parent="SZ6K6iX57uF1bjde4Gt6-142">
          <mxGeometry x="30" width="190" height="30" as="geometry">
            <mxRectangle width="190" height="30" as="alternateBounds" />
          </mxGeometry>
        </mxCell>
        <mxCell id="SZ6K6iX57uF1bjde4Gt6-147" value="due day" style="text;html=1;align=center;verticalAlign=middle;resizable=0;points=[];autosize=1;strokeColor=none;fillColor=none;" vertex="1" parent="1">
          <mxGeometry x="275" y="-40" width="70" height="30" as="geometry" />
        </mxCell>
        <mxCell id="SZ6K6iX57uF1bjde4Gt6-148" value="quantity" style="text;html=1;align=center;verticalAlign=middle;resizable=0;points=[];autosize=1;strokeColor=none;fillColor=none;" vertex="1" parent="1">
          <mxGeometry x="-10" y="190" width="70" height="30" as="geometry" />
        </mxCell>
        <mxCell id="SZ6K6iX57uF1bjde4Gt6-149" value="Price" style="text;html=1;align=center;verticalAlign=middle;resizable=0;points=[];autosize=1;strokeColor=none;fillColor=none;" vertex="1" parent="1">
          <mxGeometry x="280" y="-15" width="50" height="30" as="geometry" />
        </mxCell>
        <mxCell id="SZ6K6iX57uF1bjde4Gt6-150" value="from" style="text;html=1;align=center;verticalAlign=middle;resizable=0;points=[];autosize=1;strokeColor=none;fillColor=none;" vertex="1" parent="1">
          <mxGeometry x="475" y="-162" width="50" height="30" as="geometry" />
        </mxCell>
        <mxCell id="SZ6K6iX57uF1bjde4Gt6-151" value="belong" style="text;html=1;align=center;verticalAlign=middle;resizable=0;points=[];autosize=1;strokeColor=none;fillColor=none;" vertex="1" parent="1">
          <mxGeometry x="460" y="128" width="60" height="30" as="geometry" />
        </mxCell>
        <mxCell id="SZ6K6iX57uF1bjde4Gt6-152" value="have" style="text;html=1;align=center;verticalAlign=middle;resizable=0;points=[];autosize=1;strokeColor=none;fillColor=none;" vertex="1" parent="1">
          <mxGeometry x="345" y="248" width="50" height="30" as="geometry" />
        </mxCell>
        <mxCell id="SZ6K6iX57uF1bjde4Gt6-154" value="from" style="text;html=1;align=center;verticalAlign=middle;resizable=0;points=[];autosize=1;strokeColor=none;fillColor=none;" vertex="1" parent="1">
          <mxGeometry x="80" y="220" width="50" height="30" as="geometry" />
        </mxCell>
      </root>
    </mxGraphModel>
  </diagram>
</mxfile>
